REM DIRINDEX 1\2,1\3,1\4,1\5
REM DIRNAME cjc005,folder01,folder02,folder03,folder04
TITLE ""
FILE "P1Q_t_1250-1259.mp3" MP3
  TRACK 01 AUDIO
    TITLE "3:cjc005_4656"
    INDEX 01 00:00:00
  TRACK 02 AUDIO
    TITLE "0:"
    INDEX 01 00:00:72
  TRACK 03 AUDIO
    TITLE "4:cjc005_4657"
    INDEX 01 00:01:24
  TRACK 04 AUDIO
    TITLE "0:"
    INDEX 01 00:02:67
  TRACK 05 AUDIO
    TITLE "5:cjc005_4658"
    INDEX 01 00:03:14
  TRACK 06 AUDIO
    TITLE "0:"
    INDEX 01 00:05:12
  TRACK 07 AUDIO
    TITLE "3:cjc005_4659"
    INDEX 01 00:05:59
  TRACK 08 AUDIO
    TITLE "0:"
    INDEX 01 00:07:03
  TRACK 09 AUDIO
    TITLE "4:cjc005_4660"
    INDEX 01 00:07:31
  TRACK 10 AUDIO
    TITLE "0:"
    INDEX 01 00:09:14
  TRACK 11 AUDIO
    TITLE "5:cjc005_4661"
    INDEX 01 00:09:42
  TRACK 12 AUDIO
    TITLE "0:"
    INDEX 01 00:13:06
  TRACK 13 AUDIO
    TITLE "3:cjc005_4662"
    INDEX 01 00:13:63
  TRACK 14 AUDIO
    TITLE "0:"
    INDEX 01 00:14:62
  TRACK 15 AUDIO
    TITLE "4:cjc005_4663"
    INDEX 01 00:15:09
  TRACK 16 AUDIO
    TITLE "0:"
    INDEX 01 00:16:34
  TRACK 17 AUDIO
    TITLE "5:cjc005_4664"
    INDEX 01 00:16:57
  TRACK 18 AUDIO
    TITLE "0:"
    INDEX 01 00:20:73
  TRACK 19 AUDIO
    TITLE "3:cjc005_4665"
    INDEX 01 00:21:51
  TRACK 20 AUDIO
    TITLE "0:"
    INDEX 01 00:22:56
  TRACK 21 AUDIO
    TITLE "4:cjc005_4666"
    INDEX 01 00:23:06
  TRACK 22 AUDIO
    TITLE "0:"
    INDEX 01 00:24:33
  TRACK 23 AUDIO
    TITLE "5:cjc005_4667"
    INDEX 01 00:24:63
  TRACK 24 AUDIO
    TITLE "0:"
    INDEX 01 00:28:17
  TRACK 25 AUDIO
    TITLE "3:cjc005_4668"
    INDEX 01 00:28:72
  TRACK 26 AUDIO
    TITLE "0:"
    INDEX 01 00:30:06
  TRACK 27 AUDIO
    TITLE "4:cjc005_4669"
    INDEX 01 00:30:38
  TRACK 28 AUDIO
    TITLE "0:"
    INDEX 01 00:31:61
  TRACK 29 AUDIO
    TITLE "5:cjc005_4670"
    INDEX 01 00:32:11
  TRACK 30 AUDIO
    TITLE "0:"
    INDEX 01 00:35:21
  TRACK 31 AUDIO
    TITLE "3:cjc005_4671"
    INDEX 01 00:35:72
  TRACK 32 AUDIO
    TITLE "0:"
    INDEX 01 00:37:16
  TRACK 33 AUDIO
    TITLE "4:cjc005_4672"
    INDEX 01 00:37:50
  TRACK 34 AUDIO
    TITLE "0:"
    INDEX 01 00:39:03
  TRACK 35 AUDIO
    TITLE "5:cjc005_4673"
    INDEX 01 00:39:31
  TRACK 36 AUDIO
    TITLE "0:"
    INDEX 01 00:42:66
  TRACK 37 AUDIO
    TITLE "3:cjc005_4674"
    INDEX 01 00:43:37
  TRACK 38 AUDIO
    TITLE "0:"
    INDEX 01 00:44:69
  TRACK 39 AUDIO
    TITLE "4:cjc005_4675"
    INDEX 01 00:45:14
  TRACK 40 AUDIO
    TITLE "0:"
    INDEX 01 00:46:51
  TRACK 41 AUDIO
    TITLE "5:cjc005_4676"
    INDEX 01 00:47:01
  TRACK 42 AUDIO
    TITLE "0:"
    INDEX 01 00:50:44
  TRACK 43 AUDIO
    TITLE "3:cjc005_4677"
    INDEX 01 00:51:26
  TRACK 44 AUDIO
    TITLE "0:"
    INDEX 01 00:52:53
  TRACK 45 AUDIO
    TITLE "4:cjc005_4678"
    INDEX 01 00:53:02
  TRACK 46 AUDIO
    TITLE "0:"
    INDEX 01 00:54:30
  TRACK 47 AUDIO
    TITLE "5:cjc005_4679"
    INDEX 01 00:54:56
  TRACK 48 AUDIO
    TITLE "0:"
    INDEX 01 00:58:69
  TRACK 49 AUDIO
    TITLE "3:cjc005_4680"
    INDEX 01 00:59:43
  TRACK 50 AUDIO
    TITLE "0:"
    INDEX 01 01:00:59
  TRACK 51 AUDIO
    TITLE "4:cjc005_4681"
    INDEX 01 01:01:17
  TRACK 52 AUDIO
    TITLE "0:"
    INDEX 01 01:02:34
  TRACK 53 AUDIO
    TITLE "5:cjc005_4682"
    INDEX 01 01:02:57
  TRACK 54 AUDIO
    TITLE "0:"
    INDEX 01 01:07:14
  TRACK 55 AUDIO
    TITLE "3:cjc005_4683"
    INDEX 01 01:07:63
  TRACK 56 AUDIO
    TITLE "0:"
    INDEX 01 01:09:16
  TRACK 57 AUDIO
    TITLE "4:cjc005_4684"
    INDEX 01 01:09:42
  TRACK 58 AUDIO
    TITLE "0:"
    INDEX 01 01:10:61
  TRACK 59 AUDIO
    TITLE "5:cjc005_4685"
    INDEX 01 01:11:09
  TRACK 60 AUDIO
    TITLE "0:"
    INDEX 01 01:15:03
